<svg xmlns="http://www.w3.org/2000/svg" width="410" height="404" viewBox="0 0 410 404" fill="none">
  <path d="M399.641 59.5249L222.135 370.829C214.281 384.762 194.381 384.762 186.55 370.829L10.3588 59.5249C1.8386 44.7059 14.9499 26.7897 31.3505 30.478L205.662 69.0821C208.484 69.7072 211.416 69.7072 214.238 69.0821L378.649 30.478C395.05 26.7897 408.161 44.7059 399.641 59.5249Z" fill="url(#paint0_linear)"/>
  <path d="M292.965 26.4772L164.282 50.8024C162.488 51.1435 161.157 52.6926 161.055 54.4982L153.629 188.547C153.49 190.977 155.776 192.845 158.082 192.189L193.515 182.003C195.927 181.31 198.233 183.455 197.727 185.933L173.142 302.075C172.664 304.347 174.725 306.261 176.909 305.533L198.763 298.249C200.955 297.516 203.024 299.45 202.53 301.731L187.373 376.825C186.746 379.693 190.389 381.439 192.263 379.153L193.512 377.518L265.954 279.658C267.433 277.623 265.749 274.902 263.229 275.338L227.816 281.123C225.443 281.515 223.352 279.434 223.747 277.065L246.323 138.155C246.725 135.704 244.516 133.584 242.098 134.202L205.647 143.592C203.209 144.22 201.038 141.968 201.64 139.51L233.09 12.6894C233.717 10.1648 231.379 7.83099 228.868 8.54185L292.965 26.4772Z" fill="url(#paint1_linear)"/>
  <defs>
    <linearGradient id="paint0_linear" x1="2.494" y1="50.537" x2="391.641" y2="355.577" gradientUnits="userSpaceOnUse">
      <stop stop-color="#41D1FF"/>
      <stop offset="1" stop-color="#BD34FE"/>
    </linearGradient>
    <linearGradient id="paint1_linear" x1="182.212" y1="6.94642" x2="256.18" y2="362.581" gradientUnits="userSpaceOnUse">
      <stop stop-color="#FFEA83"/>
      <stop offset="0.0833333" stop-color="#FFDD35"/>
      <stop offset="1" stop-color="#FFA800"/>
    </linearGradient>
  </defs>
</svg>
